<mxfile host="app.diagrams.net" modified="2024-05-12T07:06:20.768Z" agent="Mozilla/5.0 (Windows NT 10.0; Win64; x64) AppleWebKit/537.36 (KHTML, like Gecko) Chrome/125.0.0.0 Safari/537.36" etag="Q6m14ilQqe8mlQb3BgnH" version="24.4.0" type="device">
  <diagram name="第 1 页" id="lbkftJgeV7YC43JYXeNE">
    <mxGraphModel dx="682" dy="406" grid="1" gridSize="10" guides="1" tooltips="1" connect="1" arrows="1" fold="1" page="1" pageScale="1" pageWidth="827" pageHeight="1169" math="0" shadow="0">
      <root>
        <mxCell id="0" />
        <mxCell id="1" parent="0" />
        <mxCell id="7nh5g-gSHWyEmg5eRZ_v-21" style="edgeStyle=none;rounded=0;orthogonalLoop=1;jettySize=auto;html=1;exitX=1;exitY=0;exitDx=0;exitDy=0;entryX=0;entryY=1;entryDx=0;entryDy=0;" parent="1" source="7nh5g-gSHWyEmg5eRZ_v-1" target="7nh5g-gSHWyEmg5eRZ_v-3" edge="1">
          <mxGeometry relative="1" as="geometry" />
        </mxCell>
        <mxCell id="7nh5g-gSHWyEmg5eRZ_v-1" value="" style="ellipse;whiteSpace=wrap;html=1;aspect=fixed;" parent="1" vertex="1">
          <mxGeometry x="220" y="210" width="10" height="10" as="geometry" />
        </mxCell>
        <mxCell id="7nh5g-gSHWyEmg5eRZ_v-20" style="edgeStyle=none;rounded=0;orthogonalLoop=1;jettySize=auto;html=1;exitX=0;exitY=0.5;exitDx=0;exitDy=0;entryX=1;entryY=1;entryDx=0;entryDy=0;" parent="1" source="7nh5g-gSHWyEmg5eRZ_v-2" target="7nh5g-gSHWyEmg5eRZ_v-1" edge="1">
          <mxGeometry relative="1" as="geometry" />
        </mxCell>
        <mxCell id="7nh5g-gSHWyEmg5eRZ_v-30" style="edgeStyle=none;rounded=0;orthogonalLoop=1;jettySize=auto;html=1;exitX=1;exitY=0;exitDx=0;exitDy=0;entryX=0;entryY=1;entryDx=0;entryDy=0;" parent="1" source="7nh5g-gSHWyEmg5eRZ_v-2" target="7nh5g-gSHWyEmg5eRZ_v-6" edge="1">
          <mxGeometry relative="1" as="geometry" />
        </mxCell>
        <mxCell id="OtHR5fXg7CDXO0eJokvP-6" style="rounded=0;orthogonalLoop=1;jettySize=auto;html=1;exitX=0.25;exitY=0;exitDx=0;exitDy=0;entryX=0.5;entryY=1;entryDx=0;entryDy=0;" edge="1" parent="1" source="7nh5g-gSHWyEmg5eRZ_v-2" target="7nh5g-gSHWyEmg5eRZ_v-4">
          <mxGeometry relative="1" as="geometry" />
        </mxCell>
        <mxCell id="7nh5g-gSHWyEmg5eRZ_v-2" value="depot" style="rounded=0;whiteSpace=wrap;html=1;" parent="1" vertex="1">
          <mxGeometry x="300" y="230" width="40" height="40" as="geometry" />
        </mxCell>
        <mxCell id="7nh5g-gSHWyEmg5eRZ_v-29" style="edgeStyle=none;rounded=0;orthogonalLoop=1;jettySize=auto;html=1;entryX=0;entryY=0;entryDx=0;entryDy=0;" parent="1" target="7nh5g-gSHWyEmg5eRZ_v-2" edge="1">
          <mxGeometry relative="1" as="geometry">
            <mxPoint x="259" y="169" as="sourcePoint" />
          </mxGeometry>
        </mxCell>
        <mxCell id="7nh5g-gSHWyEmg5eRZ_v-3" value="" style="ellipse;whiteSpace=wrap;html=1;aspect=fixed;" parent="1" vertex="1">
          <mxGeometry x="250" y="160" width="10" height="10" as="geometry" />
        </mxCell>
        <mxCell id="OtHR5fXg7CDXO0eJokvP-4" style="rounded=0;orthogonalLoop=1;jettySize=auto;html=1;exitX=0.854;exitY=0.5;exitDx=0;exitDy=0;entryX=0;entryY=0.5;entryDx=0;entryDy=0;exitPerimeter=0;" edge="1" parent="1" source="7nh5g-gSHWyEmg5eRZ_v-4" target="OtHR5fXg7CDXO0eJokvP-2">
          <mxGeometry relative="1" as="geometry" />
        </mxCell>
        <mxCell id="7nh5g-gSHWyEmg5eRZ_v-4" value="" style="ellipse;whiteSpace=wrap;html=1;aspect=fixed;" parent="1" vertex="1">
          <mxGeometry x="290" y="130" width="10" height="10" as="geometry" />
        </mxCell>
        <mxCell id="7nh5g-gSHWyEmg5eRZ_v-25" style="edgeStyle=none;rounded=0;orthogonalLoop=1;jettySize=auto;html=1;exitX=0.5;exitY=1;exitDx=0;exitDy=0;entryX=1;entryY=0.5;entryDx=0;entryDy=0;" parent="1" source="7nh5g-gSHWyEmg5eRZ_v-5" target="7nh5g-gSHWyEmg5eRZ_v-2" edge="1">
          <mxGeometry relative="1" as="geometry" />
        </mxCell>
        <mxCell id="7nh5g-gSHWyEmg5eRZ_v-5" value="" style="ellipse;whiteSpace=wrap;html=1;aspect=fixed;" parent="1" vertex="1">
          <mxGeometry x="410" y="210" width="10" height="10" as="geometry" />
        </mxCell>
        <mxCell id="7nh5g-gSHWyEmg5eRZ_v-24" style="edgeStyle=none;rounded=0;orthogonalLoop=1;jettySize=auto;html=1;exitX=1;exitY=1;exitDx=0;exitDy=0;entryX=0;entryY=0;entryDx=0;entryDy=0;" parent="1" source="7nh5g-gSHWyEmg5eRZ_v-6" target="7nh5g-gSHWyEmg5eRZ_v-5" edge="1">
          <mxGeometry relative="1" as="geometry" />
        </mxCell>
        <mxCell id="7nh5g-gSHWyEmg5eRZ_v-6" value="" style="ellipse;whiteSpace=wrap;html=1;aspect=fixed;" parent="1" vertex="1">
          <mxGeometry x="380" y="160" width="10" height="10" as="geometry" />
        </mxCell>
        <mxCell id="OtHR5fXg7CDXO0eJokvP-8" style="rounded=0;orthogonalLoop=1;jettySize=auto;html=1;exitX=0.5;exitY=1;exitDx=0;exitDy=0;entryX=0.75;entryY=0;entryDx=0;entryDy=0;" edge="1" parent="1" source="OtHR5fXg7CDXO0eJokvP-2" target="7nh5g-gSHWyEmg5eRZ_v-2">
          <mxGeometry relative="1" as="geometry" />
        </mxCell>
        <mxCell id="OtHR5fXg7CDXO0eJokvP-2" value="" style="ellipse;whiteSpace=wrap;html=1;aspect=fixed;" vertex="1" parent="1">
          <mxGeometry x="340" y="130" width="10" height="10" as="geometry" />
        </mxCell>
      </root>
    </mxGraphModel>
  </diagram>
</mxfile>
